<?xml version="1.0" encoding="utf-8"?>
<!-- Generator: Adobe Illustrator 23.0.2, SVG Export Plug-In . SVG Version: 6.00 Build 0)  -->
<svg version="1.1" id="Ebene_2" xmlns="http://www.w3.org/2000/svg" xmlns:xlink="http://www.w3.org/1999/xlink" x="0px" y="0px"
	 viewBox="0 0 363.8 338.5" style="enable-background:new 0 0 363.8 338.5;" xml:space="preserve">
<g>
	<path d="M348.9,338.5h-46.4c-4.4,0-8-3.6-8-8s3.6-8,8-8h43.9L196.9,149.2c-3.8-4.4-9.3-6.9-15-6.9s-11.3,2.5-15,6.9L17.5,322.5H220
		c4.4,0,8,3.6,8,8s-3.6,8-8,8H14.9c-5.9,0-11-3.3-13.5-8.7c-2.4-5.3-1.6-11.4,2.3-15.9l151.1-175.2c6.8-7.9,16.7-12.4,27.2-12.4
		s20.3,4.5,27.2,12.4l151,175.2c3.8,4.5,4.7,10.5,2.3,15.9C359.9,335.2,354.7,338.5,348.9,338.5z"/>
	<circle cx="181.9" cy="10.9" r="10.9"/>
	<circle cx="169.1" cy="61.9" r="10.9"/>
	<circle cx="204.4" cy="83.7" r="10.9"/>
	<circle cx="171" cy="104.4" r="10.9"/>
	<ellipse transform="matrix(0.1602 -0.9871 0.9871 0.1602 -19.178 332.0591)" cx="185.6" cy="177.3" rx="10.9" ry="10.9"/>
	<circle cx="153.7" cy="197.9" r="10.9"/>
	<circle cx="171" cy="221.5" r="10.9"/>
	<circle cx="211.7" cy="202.3" r="10.9"/>
	<circle cx="134.9" cy="232.4" r="10.9"/>
	<circle cx="196.5" cy="247.8" r="10.9"/>
	<circle cx="238" cy="230" r="10.9"/>
	<circle cx="110.9" cy="278.8" r="10.9"/>
	<path d="M269.8,338.5h-12.4c-4.4,0-8-3.6-8-8s3.6-8,8-8h12.4c4.4,0,8,3.6,8,8S274.2,338.5,269.8,338.5z"/>
</g>
</svg>
