<?xml version="1.0" encoding="utf-8"?>
<!-- Generator: Adobe Illustrator 23.0.2, SVG Export Plug-In . SVG Version: 6.00 Build 0)  -->
<svg version="1.1" id="arrow" xmlns="http://www.w3.org/2000/svg" xmlns:xlink="http://www.w3.org/1999/xlink" x="0px" y="0px"
	 viewBox="0 0 24 14" style="enable-background:new 0 0 24 14;" xml:space="preserve">
<style type="text/css">
	.st0{fill:#E80071;}
</style>
<path class="st0" d="M23,6H3.4l4.3-4.3c0.4-0.4,0.4-1,0-1.4c-0.4-0.4-1-0.4-1.4,0l-6,6C0.2,6.4,0.1,6.5,0.1,6.6C0,6.7,0,6.9,0,7v0
	c0,0.3,0.1,0.5,0.3,0.7l6,6c0.4,0.4,1,0.4,1.4,0c0.4-0.4,0.4-1,0-1.4L3.4,8H23c0.6,0,1-0.4,1-1S23.6,6,23,6z"/>
</svg>
